# xmcd
#
# Track frame offsets:
#	150
#	22055
#	52548
#	80714
#	101380
#	125954
#	149356
#	171816
#	192232
#	213717
#	240522
#
# Disc length: 3475 seconds
#
# Revision: 1
# Processed by: cddbd v1.5.2PL0 Copyright (c) Steve Scherf et al.
# Submitted via: EZCDAudioConverter 8.0.2.1
#
DISCID=9a0d910b
DTITLE=Mai Thiên Vân - Nếu Anh Đừng Hẹn
DYEAR=2009
DGENRE=
TTITLE0=Mai Thiên Vân - Nếu Anh Đừng Hẹn
TTITLE1=Mai Thiên Vân - Tình yyeu đơn pPhương
TTITLE2=Mai Thiên Vân, Quang Lê  - LK Áo em chưa mặc một lần, Vòng nhẫn cưới
TTITLE3=Mai Thiên Vân - Thu tím lá vàng
TTITLE4=Mai Thiên Vân - Người thương kẻ nhớ
TTITLE5=Mai Thiên Vân,Mai Quốc Huy - Nếu chúng mình cách trở
TTITLE6=Mai Thiên Vân - Hai vì sao lạc
TTITLE7=Mai Thiên Vân - Giọt sầu trinh nữ
TTITLE8=Mai Thiên Vân - Em chờ anh trở lại
TTITLE9=Mai Thiên Vân,Mai Quốc Huy - Cho tình yêu chúng mình
TTITLE10=Mai Thiên Vân - Vòng tay giữ trọn ân tình
EXTD=
EXTT0=
EXTT1=
EXTT2=
EXTT3=
EXTT4=
EXTT5=
EXTT6=
EXTT7=
EXTT8=
EXTT9=
EXTT10=
PLAYORDER=
